AlifAstrolabe.glyphspackage
{
glyphname = parenleft;
layers = (
{
layerId = m01;
shapes = (
{
closed = 1;
nodes = (
(230,-93,l),
(120,91,o),
(120,309,o),
(230,493,c),
(221,500,l),
(150,425,o),
(100,305,o),
(100,200,cs),
(100,95,o),
(150,-25,o),
(221,-100,c)
);
}
);
width = 280;
}
);
metricLeft = "=100";
metricRight = "=50";
unicode = 40;
}
{
glyphname = slash;
layers = (
{
layerId = m01;
shapes = (
{
closed = 1;
nodes = (
(250,500,l),
(203,513,l),
(50,-100,l),
(97,-113,l)
);
}
);
width = 300;
}
);
metricLeft = "=50";
metricRight = "=|";
unicode = 47;
}
{
glyphname = bracketleft;
layers = (
{
layerId = m01;
shapes = (
{
closed = 1;
nodes = (
(100,-100,l),
(100,500,l),
(250,500,l),
(250,450,l),
(150,450,l),
(150,-50,l),
(250,-50,l),
(250,-100,l)
);
}
);
width = 300;
}
);
metricLeft = "=parenleft";
metricRight = "=parenleft";
unicode = 91;
}
{
glyphname = braceleft;
layers = (
{
layerId = m01;
shapes = (
{
closed = 1;
nodes = (
(63,195,o),
(160,201,o),
(160,299,cs),
(160,332,o),
(150,366,o),
(150,399,cs),
(150,489,o),
(195,490,o),
(220,490,c),
(220,500,l),
(197,500,o),
(100,497,o),
(100,399,cs),
(100,366,o),
(110,332,o),
(110,299,cs),
(110,209,o),
(65,205,o),
(40,205,c),
(40,195,l)
);
},
{
closed = 1;
nodes = (
(220,-90,l),
(195,-90,o),
(150,-89,o),
(150,1,cs),
(150,34,o),
(160,68,o),
(160,101,cs),
(160,199,o),
(63,205,o),
(40,205,c),
(40,195,l),
(65,195,o),
(110,191,o),
(110,101,cs),
(110,68,o),
(100,34,o),
(100,1,cs),
(100,-97,o),
(197,-100,o),
(220,-100,c)
);
}
);
width = 270;
},
{
associatedMasterId = m01;
layerId = "836F5949-E087-42A8-8E00-BDC88C795C25";
name = "2 Jul 25 at 01:03";
shapes = (
{
closed = 1;
nodes = (
(230,-93,l),
(120,91,o),
(120,309,o),
(230,493,c),
(221,500,l),
(150,425,o),
(100,305,o),
(100,200,cs),
(100,95,o),
(150,-25,o),
(221,-100,c)
);
}
);
width = 400;
}
);
metricLeft = "=bracketleft@0";
metricRight = "=parenleft";
unicode = 123;
}
{
glyphname = bar;
layers = (
{
layerId = m01;
shapes = (
{
closed = 1;
nodes = (
(150,-100,l),
(150,500,l),
(100,500,l),
(100,-100,l)
);
}
);
width = 250;
}
);
metricLeft = "=bracketleft";
metricRight = "=bracketright";
unicode = 124;
}
{
glyphname = "sad-ar";
layers = (
{
anchors = (
{
name = bottom;
pos = (710,0);
},
{
name = top;
pos = (710,200);
}
);
backgroundImage = {
angle = -89;
imagePath = "images/31246001-fixed.jpg";
pos = (-15484,11025);
scale = (209.3003,209.3003);
};
layerId = m01;
shapes = (
{
closed = 1;
nodes = (
(397,-150,o),
(474,-123,o),
(531,-56,cs),
(548,-36,o),
(541,-17,o),
(533,7,cs),
(484,150,l),
(476,147,l),
(468,108,o),
(452,89,o),
(410,66,c),
(412,59,l),
(454,47,o),
(469,38,o),
(493,-21,cs),
(510,-63,l),
(513,-14,l),
(463,-77,o),
(387,-100,o),
(322,-100,cs),
(242,-100,o),
(193,-34,o),
(156,50,c),
(135,17,l),
(174,-65,o),
(214,-150,o),
(322,-150,cs)
);
},
{
closed = 1;
nodes = (
(58,-50,l),
(74,-9,o),
(128,10,o),
(156,10,c),
(156,50,l),
(0,50,l),
(0,42,l),
(33,20,o),
(45,-2,o),
(50,-50,c)
);
},
{
pos = (500,0);
ref = _sad;
}
);
width = 950;
},
{
anchors = (
{
name = bottom;
pos = (630,0);
},
{
name = top;
pos = (630,200);
}
);
associatedMasterId = m01;
attr = {
coordinates = (
0
);
};
layerId = "54FC2625-B539-4677-8761-8A61F08BA85B";
name = "{0} 9 Apr 24 at 17:22";
shapes = (
{
closed = 1;
nodes = (
(397,-150,o),
(474,-123,o),
(531,-56,cs),
(548,-36,o),
(541,-17,o),
(533,7,cs),
(484,150,l),
(476,147,l),
(468,108,o),
(452,89,o),
(410,66,c),
(412,59,l),
(454,47,o),
(469,38,o),
(493,-21,cs),
(510,-63,l),
(513,-14,l),
(463,-77,o),
(387,-100,o),
(322,-100,cs),
(242,-100,o),
(193,-34,o),
(156,50,c),
(135,17,l),
(174,-65,o),
(214,-150,o),
(322,-150,cs)
);
},
{
closed = 1;
nodes = (
(58,-50,l),
(74,-9,o),
(128,10,o),
(156,10,c),
(156,50,l),
(0,50,l),
(0,42,l),
(33,20,o),
(45,-2,o),
(50,-50,c)
);
},
{
pos = (500,0);
ref = _sad;
}
);
width = 800;
},
{
anchors = (
{
name = bottom;
pos = (1650,0);
},
{
name = top;
pos = (1650,200);
}
);
associatedMasterId = m01;
attr = {
coordinates = (
100
);
};
layerId = "F38E0615-4612-4F00-923D-CB7ADFDA02E9";
name = "9 Apr 24 at 17:22";
shapes = (
{
closed = 1;
nodes = (
(397,-150,o),
(474,-123,o),
(531,-56,cs),
(548,-36,o),
(541,-17,o),
(533,7,cs),
(484,150,l),
(476,147,l),
(468,108,o),
(452,89,o),
(410,66,c),
(412,59,l),
(454,47,o),
(469,38,o),
(493,-21,cs),
(510,-63,l),
(513,-14,l),
(463,-77,o),
(387,-100,o),
(322,-100,cs),
(242,-100,o),
(193,-34,o),
(156,50,c),
(135,17,l),
(174,-65,o),
(214,-150,o),
(322,-150,cs)
);
},
{
closed = 1;
nodes = (
(58,-50,l),
(74,-9,o),
(128,10,o),
(156,10,c),
(156,50,l),
(0,50,l),
(0,42,l),
(33,20,o),
(45,-2,o),
(50,-50,c)
);
},
{
pos = (500,0);
ref = _sad;
}
);
width = 2800;
}
);
metricLeft = "=0";
metricRight = "=50@50";
unicode = 1589;
}
{
glyphname = "tah-ar";
layers = (
{
anchors = (
{
name = bottom;
pos = (287,0);
},
{
name = top;
pos = (406,200);
}
);
backgroundImage = {
angle = 1;
imagePath = "images/31246001-fixed.jpg";
locked = 1;
pos = (-13240,-10890);
scale = (209.3003,209.3003);
};
layerId = m01;
shapes = (
{
closed = 1;
nodes = (
(62,0,l),
(380,423,l),
(319,423,l),
(0,0,l)
);
},
{
closed = 1;
nodes = (
(459,0,l),
(459,50,l),
(52,50,l),
(52,0,l)
);
},
{
closed = 1;
nodes = (
(459,100,l),
(459,150,l),
(125,150,l),
(125,100,l)
);
},
{
closed = 1;
nodes = (
(507,0,l),
(487,150,l),
(435,150,l),
(455,0,l)
);
},
{
closed = 1;
nodes = (
(380,423,l),
(212,550,l),
(207,544,l),
(220,506,o),
(216,481,o),
(192,440,c),
(198,435,l),
(235,458,o),
(284,433,o),
(302,420,cs),
(333,396,l)
);
}
);
width = 550;
}
);
metricLeft = "=0";
metricRight = "=50@50";
unicode = 1591;
}
{
glyphname = "kashida-ar";
layers = (
{
layerId = m01;
shapes = (
{
closed = 1;
nodes = (
(50,0,l),
(50,50,l),
(-10,50,l),
(-10,0,l)
);
}
);
width = 50;
},
{
associatedMasterId = m01;
attr = {
coordinates = (
0
);
};
layerId = "3F5368F5-7F1E-477B-AF19-33060268D1EE";
name = "1 Jul 25 at 22:50";
shapes = (
{
closed = 1;
nodes = (
(0,0,l),
(0,50,l),
(-10,50,l),
(-10,0,l)
);
}
);
width = 0;
},
{
associatedMasterId = m01;
attr = {
coordinates = (
100
);
};
layerId = "7AC9F8AC-1071-4BBC-86F2-73FC3519D764";
name = "1 Jul 25 at 22:49";
shapes = (
{
closed = 1;
nodes = (
(1850,0,l),
(1850,50,l),
(-10,50,l),
(-10,0,l)
);
}
);
width = 1850;
}
);
metricLeft = "=-10";
metricRight = "=0";
unicode = 1600;
}
{
glyphname = "fathatan-ar";
layers = (
{
layerId = m01;
shapes = (
{
closed = 1;
nodes = (
(150,527,l),
(146,548,l),
(0,507,l),
(3,492,l)
);
},
{
ref = "fatha-ar";
}
);
width = 150;
}
);
metricWidth = "=fatha-ar";
unicode = 1611;
}
{
glyphname = "kasratan-ar";
layers = (
{
layerId = m01;
shapes = (
{
closed = 1;
nodes = (
(150,-219,l),
(146,-199,l),
(0,-227,l),
(3,-242,l)
);
},
{
ref = "kasra-ar";
}
);
width = 150;
}
);
unicode = 1613;
}
{
glyphname = "fatha-ar";
layers = (
{
anchors = (
{
name = _top;
pos = (75,350);
},
{
name = _top.mkmk;
pos = (75,400);
}
);
layerId = m01;
shapes = (
{
closed = 1;
nodes = (
(150,479,l),
(146,500,l),
(0,465,l),
(3,450,l)
);
}
);
width = 150;
}
);
metricLeft = "=0";
metricRight = "=0";
unicode = 1614;
}
{
glyphname = "seven-ar";
kernLeft = "one-ar";
kernRight = "seven-ar";
layers = (
{
layerId = m01;
shapes = (
{
closed = 1;
nodes = (
(250,0,l),
(286,146,o),
(339,297,o),
(400,440,c),
(356,459,l),
(292,313,o),
(239,159,o),
(202,10,c),
(248,10,l),
(211,159,o),
(158,313,o),
(94,459,c),
(50,440,l),
(111,297,o),
(164,146,o),
(200,0,c)
);
}
);
width = 450;
}
);
metricLeft = "=one-ar";
metricRight = "=|";
unicode = 1639;
}
{
glyphname = _beh.init;
layers = (
{
layerId = m01;
shapes = (
{
closed = 1;
nodes = (
(119,0,l),
(91,205,l),
(83,204,l),
(66,169,o),
(45,154,o),
(-1,142,c),
(0,133,l),
(43,123,o),
(59,72,o),
(62,50,c),
(69,0,l)
);
},
{
closed = 1;
nodes = (
(112,0,l),
(112,50,l),
(-10,50,l),
(-10,0,l)
);
}
);
width = 162;
}
);
}
{
glyphname = _beh.init.high;
layers = (
{
layerId = m01;
shapes = (
{
closed = 1;
nodes = (
(82,283,l),
(74,282,l),
(57,247,o),
(36,232,o),
(-10,220,c),
(-9,211,l),
(34,201,o),
(50,150,o),
(53,128,c),
(64,34,l),
(120,0,l)
);
},
{
closed = 1;
nodes = (
(120,0,l),
(83,50,l),
(-9,50,l),
(-9,0,l)
);
}
);
width = 1000;
}
);
metricWidth = "=1000";
}
{
glyphname = _sad;
layers = (
{
layerId = m01;
shapes = (
{
closed = 1;
nodes = (
(407,0,l),
(358,50,l),
(0,50,l),
(0,0,l)
);
},
{
closed = 1;
nodes = (
(45,30,l),
(126,138,l),
(73,150,l),
(-17,30,l)
);
},
{
closed = 1;
nodes = (
(358,100,l),
(387,150,l),
(73,150,l),
(73,100,l)
);
},
{
closed = 1;
nodes = (
(387,150,l),
(342,100,l),
(349,50,l),
(407,0,l)
);
}
);
width = 450;
},
{
associatedMasterId = m01;
attr = {
coordinates = (
0
);
};
layerId = "70B0AE4C-CE43-41D6-A567-780AEDE891BD";
name = "9 Apr 24 at 17:22";
shapes = (
{
closed = 1;
nodes = (
(257,0,l),
(208,50,l),
(0,50,l),
(0,0,l)
);
},
{
closed = 1;
nodes = (
(45,30,l),
(126,138,l),
(73,150,l),
(-17,30,l)
);
},
{
closed = 1;
nodes = (
(208,100,l),
(237,150,l),
(73,150,l),
(73,100,l)
);
},
{
closed = 1;
nodes = (
(237,150,l),
(192,100,l),
(199,50,l),
(257,0,l)
);
}
);
width = 300;
},
{
associatedMasterId = m01;
attr = {
coordinates = (
100
);
};
layerId = "836B97D2-0409-48D9-83DF-959F5CD5FC9D";
name = "9 Apr 24 at 17:22";
shapes = (
{
closed = 1;
nodes = (
(1157,0,l),
(1108,50,l),
(0,50,l),
(0,0,l)
);
},
{
closed = 1;
nodes = (
(45,30,l),
(126,138,l),
(73,150,l),
(-17,30,l)
);
},
{
closed = 1;
nodes = (
(1108,100,l),
(1137,150,l),
(73,150,l),
(73,100,l)
);
},
{
closed = 1;
nodes = (
(1137,150,l),
(1092,100,l),
(1099,50,l),
(1157,0,l)
);
}
);
width = 1200;
}
);
metricRight = "=50@50";
}
{
glyphname = _tail;
layers = (
{
layerId = m01;
shapes = (
{
closed = 1;
nodes = (
(500,0,l),
(450,50,l),
(150,50,ls),
(128,50,o),
(74,59,o),
(58,100,c),
(50,100,l),
(45,52,o),
(33,30,o),
(0,8,c),
(0,0,l)
);
}
);
width = 550;
}
);
}
{
glyphname = "ain-ar.fina.alt";
layers = (
{
anchors = (
{
name = bottom;
pos = (225,-100);
},
{
name = top;
pos = (225,250);
}
);
layerId = m01;
shapes = (
{
closed = 1;
nodes = (
(183,-100,o),
(225,-94,o),
(275,-86,c),
(275,-50,l),
(79,-50,o),
(50,-49,o),
(50,-25,cs),
(50,0,o),
(77,0,o),
(150,0,cs),
(425,0,l),
(425,50,l),
(150,50,ls),
(57,50,o),
(0,33,o),
(0,-25,cs),
(0,-81,o),
(34,-95,o),
(120,-98,cs)
);
},
{
pos = (75,0);
ref = _ain2;
}
);
width = 425;
}
);
metricLeft = "=0";
metricRight = "=0";
}
{
glyphname = "alefMaksura-ar.isol";
layers = (
{
anchors = (
{
name = bottom;
pos = (333,-200);
},
{
name = top;
pos = (88,0);
}
);
backgroundImage = {
imagePath = "images/31246001-fixed.jpg";
locked = 1;
pos = (-17359,-8226);
scale = (209.3003,209.3003);
};
layerId = m01;
shapes = (
{
closed = 1;
nodes = (
(451,-200,o),
(542,-90,o),
(542,-12,cs),
(542,-2,o),
(539,8,o),
(535,18,cs),
(476,164,l),
(427,151,l),
(512,-60,l),
(511,19,l),
(496,-77,o),
(419,-150,o),
(333,-150,cs),
(241,-150,o),
(192,-84,o),
(155,0,c),
(134,-33,l),
(173,-115,o),
(213,-200,o),
(333,-200,cs)
);
},
{
closed = 1;
nodes = (
(58,-100,l),
(74,-59,o),
(128,-40,o),
(156,-40,c),
(156,0,l),
(0,0,l),
(0,-8,l),
(33,-30,o),
(45,-52,o),
(50,-100,c)
);
},
{
closed = 1;
nodes = (
(558,196,l),
(549,253,l),
(427,151,l),
(459,113,l)
);
},
{
closed = 1;
nodes = (
(650,0,l),
(549,253,l),
(516,199,l),
(596,0,l)
);
}
);
width = 700;
}
);
metricLeft = "=0";
metricRight = "=50";
}
{
glyphname = "behDotless-ar.init";
kernLeft = beh;
layers = (
{
anchors = (
{
name = "*bottom";
pos = (95,0);
userData = {
GPOS_Context = "* [behDotless-ar.medi behDotless-ar.medi.high] [dotbelow-ar twodotshorizontalbelow-ar]";
};
},
{
name = bottom;
pos = (50,0);
},
{
name = top;
pos = (35,229);
}
);
layerId = m01;
shapes = (
{
alignment = -1;
ref = _beh.init;
}
);
width = 162;
},
{
associatedMasterId = m01;
layerId = "A091571A-009A-47A6-BB3A-3B5A75543C9C";
name = "22 Mar 24 at 13:16";
shapes = (
{
closed = 1;
nodes = (
(-10,50,l),
(-10,0,l),
(100,0,l),
(100,200,l),
(92,200,l),
(70,167,o),
(48,155,o),
(0,150,c),
(0,142,l),
(41,126,o),
(50,72,o),
(50,50,c)
);
}
);
visible = 1;
width = 110;
}
);
metricLeft = "=-10";
metricRight = "=50@50";
}
{
glyphname = "dal-ar.isol";
layers = (
{
anchors = (
{
name = bottom;
pos = (283,0);
},
{
name = top;
pos = (351,200);
}
);
backgroundImage = {
angle = 1;
imagePath = "images/31246001-fixed.jpg";
pos = (-15009,-10137);
scale = (209.3003,209.3003);
};
layerId = m01;
shapes = (
{
closed = 1;
nodes = (
(557,0,l),
(508,50,l),
(400,50,l),
(400,0,l)
);
},
{
closed = 1;
nodes = (
(161,108,l),
(166,159,ls),
(170,181,o),
(184,233,o),
(228,244,c),
(228,252,l),
(182,264,o),
(162,277,o),
(144,313,c),
(135,314,l),
(110,100,l)
);
},
{
closed = 1;
nodes = (
(508,100,l),
(537,150,l),
(140,150,l),
(110,100,l)
);
},
{
closed = 1;
nodes = (
(537,150,l),
(492,100,l),
(499,50,l),
(557,0,l)
);
},
{
ref = _tail;
}
);
width = 600;
},
{
anchors = (
{
name = bottom;
pos = (163,0);
},
{
name = top;
pos = (231,250);
}
);
associatedMasterId = m01;
attr = {
coordinates = (
0
);
};
backgroundImage = {
angle = 1;
imagePath = "images/31246001-fixed.jpg";
pos = (-15009,-10137);
scale = (209.3003,209.3003);
};
layerId = "C39D2BE4-F5E8-43A2-BF93-E4F556EBA3F6";
name = "5 Oct 24 at 16:04";
shapes = (
{
closed = 1;
nodes = (
(307,0,l),
(258,50,l),
(143,50,l),
(143,0,l)
);
},
{
closed = 1;
nodes = (
(161,108,l),
(166,159,ls),
(170,181,o),
(184,233,o),
(228,244,c),
(228,252,l),
(182,264,o),
(162,277,o),
(144,313,c),
(135,314,l),
(110,100,l)
);
},
{
closed = 1;
nodes = (
(258,100,l),
(287,150,l),
(140,150,l),
(110,100,l)
);
},
{
closed = 1;
nodes = (
(287,150,l),
(242,100,l),
(249,50,l),
(307,0,l)
);
},
{
ref = _tail;
}
);
width = 350;
},
{
anchors = (
{
name = bottom;
pos = (1251,0);
},
{
name = top;
pos = (1251,200);
}
);
associatedMasterId = m01;
attr = {
coordinates = (
100
);
};
backgroundImage = {
angle = 1;
imagePath = "images/31246001-fixed.jpg";
pos = (-15009,-10137);
scale = (209.3003,209.3003);
};
layerId = "EC9C3B43-3C90-410E-8875-11906B7E1551";
name = "5 Oct 24 at 16:04";
shapes = (
{
closed = 1;
nodes = (
(2307,0,l),
(2258,50,l),
(2250,50,l),
(2250,0,l)
);
},
{
closed = 1;
nodes = (
(161,108,l),
(166,159,ls),
(170,181,o),
(184,233,o),
(228,244,c),
(228,252,l),
(182,264,o),
(162,277,o),
(144,313,c),
(135,314,l),
(110,100,l)
);
},
{
closed = 1;
nodes = (
(2258,100,l),
(2287,150,l),
(140,150,l),
(110,100,l)
);
},
{
closed = 1;
nodes = (
(2287,150,l),
(2242,100,l),
(2249,50,l),
(2307,0,l)
);
},
{
ref = _tail;
}
);
width = 2350;
}
);
metricLeft = "=0";
metricRight = "=50@50";
}
{
glyphname = "hah-ar.alt2.isol";
kernRight = hah;
layers = (
{
anchors = (
{
name = bottom;
pos = (300,0);
}
);
backgroundImage = {
angle = 1;
imagePath = "images/31246001-fixed.jpg";
locked = 1;
pos = (-15555,-11812);
scale = (209.3003,209.3003);
};
layerId = m01;
shapes = (
{
closed = 1;
nodes = (
(143,-99,o),
(185,-94,o),
(235,-86,c),
(235,-50,l),
(79,-50,o),
(50,-49,o),
(50,-25,cs),
(50,0,o),
(77,0,o),
(150,0,cs),
(200,0,l),
(200,50,l),
(150,50,ls),
(57,50,o),
(0,33,o),
(0,-25,cs),
(0,-81,o),
(34,-95,o),
(120,-98,cs)
);
},
{
pos = (160,0);
ref = "hah-ar.init";
}
);
width = 435;
}
);
metricLeft = "=0";
metricRight = "=0";
}
{
glyphname = "kashida-ar.70";
layers = (
{
layerId = m01;
shapes = (
{
closed = 1;
nodes = (
(70,0,l),
(70,50,l),
(-10,50,l),
(-10,0,l)
);
}
);
width = 70;
}
);
}
{
glyphname = "reh-ar.isol";
layers = (
{
anchors = (
{
name = bottom;
pos = (50,-125);
},
{
name = top;
pos = (88,226);
}
);
backgroundImage = {
angle = -0.1;
imagePath = "images/31246001-fixed.jpg";
locked = 1;
pos = (-16408,-6352);
scale = (209.3003,209.3003);
};
layerId = m01;
shapes = (
{
closed = 1;
nodes = (
(50,-125,l),
(138,-125,o),
(200,-62,o),
(200,25,cs),
(200,102,o),
(164,165,o),
(143,209,c),
(134,208,l),
(116,172,o),
(96,159,o),
(50,147,c),
(50,139,l),
(94,128,o),
(151,96,o),
(151,25,cs),
(151,-32,o),
(108,-75,o),
(50,-75,cs),
(29,-75,o),
(-26,-66,o),
(-42,-25,c),
(-50,-25,l),
(-55,-73,o),
(-67,-95,o),
(-100,-117,c),
(-100,-125,l)
);
}
);
width = 250;
}
);
metricLeft = "=-100";
metricRight = "=50";
}
